<?xml version="1.0" standalone="no"?><!DOCTYPE svg PUBLIC "-//W3C//DTD SVG 1.1//EN" "http://www.w3.org/Graphics/SVG/1.1/DTD/svg11.dtd"><svg class="icon" height="512" viewBox="0 0 1024 1024" version="1.1" xmlns="http://www.w3.org/2000/svg"><path d="M879.36 0H144.64C93.44 0 52.48 40.96 52.48 92.16v839.68c0 51.2 40.96 92.16 92.16 92.16h734.72c51.2 0 92.16-40.96 92.16-92.16V92.16c0-51.2-40.96-92.16-92.16-92.16z m40.96 931.84c0 23.04-17.92 40.96-40.96 40.96H144.64c-23.04 0-40.96-17.92-40.96-40.96V92.16c0-23.04 17.92-40.96 40.96-40.96h734.72c23.04 0 40.96 17.92 40.96 40.96v839.68z m-637.44-61.44l115.2-102.4-115.2-102.4v204.8z m414.72-414.72c-20.48-20.48-58.88-46.08-122.88-46.08-69.12 0-140.8 17.92-192 35.84V153.6h-102.4v442.88L352 563.2s117.76-53.76 220.16-53.76c51.2 0 64 28.16 64 53.76v307.2h102.4V563.2c2.56-7.68 2.56-64-40.96-107.52zM561.92 320h102.4c46.08-53.76 69.12-107.52 76.8-166.4h-102.4c-10.24 58.88-35.84 112.64-76.8 166.4z" fill="" /></svg>